; NON-PLATED HOLES START AT T1
; THROUGH (PLATED) HOLES START AT T100
M48
INCH
T100C0.038000
T101C0.015748
T102C0.040278
T103C0.042000
T104C0.035000
T105C0.118000
%
T100
X012536Y023546
X013536Y023546
X010536Y023546
X018091Y001329
X015536Y023546
X007536Y023546
X014091Y001329
X013091Y001329
X019126Y023645
X023158Y001269
X021158Y001269
X025158Y001269
X012091Y001329
X022126Y023645
X020126Y023645
X020158Y001269
X022158Y001269
X023126Y023645
X011091Y001329
X015091Y001329
X024158Y001269
X009536Y023546
X016091Y001329
X018126Y023645
X024126Y023645
X017091Y001329
X016536Y023546
X014536Y023546
X021126Y023645
X011536Y023546
X025126Y023645
X008536Y023546
T101
X000843Y010820
X005589Y005932
X003380Y012216
X008080Y006814
X019473Y005989
X007453Y005958
X019596Y011122
X002878Y007634
X019545Y018283
X011637Y012976
X009033Y006558
T102
X020195Y003071
X016195Y003071
X011595Y022071
X009594Y022071
X010595Y022071
X019195Y022071
X022194Y022071
X013595Y022071
X020195Y022071
X021195Y022071
X007594Y022071
X008594Y022071
X024195Y022071
X012595Y022071
X015595Y022071
X014595Y022071
X024195Y003071
X016594Y022071
X023195Y003071
X018195Y003071
X014195Y003071
X021195Y003071
X012195Y003071
X018195Y022071
X017194Y003071
X022194Y003071
X025195Y003071
X011195Y003071
X013195Y003071
X023195Y022071
X025195Y022071
X015195Y003071
T103
X010050Y012044
X008050Y012044
X013516Y012027
X009050Y012044
X014516Y012027
X015516Y012027
T104
X008989Y010123
X009989Y010123
X007989Y010123
X014544Y010174
X022391Y009687
X024391Y009687
X023391Y009687
X015544Y010174
X013544Y010174
T105
X024013Y016434
X025194Y014584
X022832Y014584
T00
M30
