G04 MADE WITH FRITZING*
G04 WWW.FRITZING.ORG*
G04 DOUBLE SIDED*
G04 HOLES PLATED*
G04 CONTOUR ON CENTER OF CONTOUR VECTOR*
%ASAXBY*%
%FSLAX23Y23*%
%MOIN*%
%OFA0B0*%
%SFA1.0B1.0*%
%ADD10C,0.065278*%
%ADD11C,0.078000*%
%ADD12C,0.170000*%
%ADD13C,0.082000*%
%ADD14C,0.075000*%
%ADD15C,0.039370*%
%ADD16R,0.082000X0.082000*%
%ADD17R,0.047244X0.043307*%
%ADD18R,0.043307X0.047244*%
%ADD19R,0.026000X0.080000*%
%ADD20R,0.137795X0.062992*%
%ADD21C,0.024000*%
%LNCOPPER1*%
G90*
G70*
G54D10*
X2120Y307D03*
X2219Y307D03*
X2320Y307D03*
X2420Y307D03*
X2520Y307D03*
X1659Y2207D03*
X1560Y2207D03*
X1460Y2207D03*
X1360Y2207D03*
X1260Y2207D03*
X1160Y2207D03*
X1060Y2207D03*
X959Y2207D03*
X859Y2207D03*
X759Y2207D03*
X2520Y2207D03*
X2420Y2207D03*
X2320Y2207D03*
X2219Y2207D03*
X2120Y2207D03*
X2020Y2207D03*
X1920Y2207D03*
X1820Y2207D03*
X1220Y307D03*
X1120Y307D03*
X1320Y307D03*
X1420Y307D03*
X1520Y307D03*
X1620Y307D03*
X1719Y307D03*
X1820Y307D03*
X2020Y307D03*
G54D11*
X2516Y127D03*
X2416Y127D03*
X2316Y127D03*
X2216Y127D03*
X2116Y127D03*
X2016Y127D03*
X1809Y133D03*
X1709Y133D03*
X1609Y133D03*
X1509Y133D03*
X1409Y133D03*
X1309Y133D03*
X1209Y133D03*
X1109Y133D03*
X2513Y2365D03*
X2413Y2365D03*
X2313Y2365D03*
X2213Y2365D03*
X2113Y2365D03*
X2013Y2365D03*
X1913Y2365D03*
X1813Y2365D03*
X754Y2355D03*
X854Y2355D03*
X954Y2355D03*
X1054Y2355D03*
X1154Y2355D03*
X1254Y2355D03*
X1354Y2355D03*
X1454Y2355D03*
X1554Y2355D03*
X1654Y2355D03*
G54D12*
X2283Y1458D03*
X2519Y1458D03*
X2401Y1643D03*
X2283Y1458D03*
X2519Y1458D03*
X2401Y1643D03*
G54D13*
X1352Y1203D03*
X1452Y1203D03*
X1552Y1203D03*
X805Y1204D03*
X905Y1204D03*
X1005Y1204D03*
G54D14*
X999Y1012D03*
X899Y1012D03*
X799Y1012D03*
X1554Y1017D03*
X1454Y1017D03*
X1354Y1017D03*
G54D15*
X1960Y1112D03*
X288Y763D03*
X338Y1222D03*
X1164Y1298D03*
X559Y593D03*
X745Y596D03*
X1955Y1828D03*
X903Y656D03*
X1947Y599D03*
X84Y1082D03*
X808Y681D03*
G54D14*
X2439Y969D03*
X2339Y969D03*
X2239Y969D03*
G54D16*
X1352Y1203D03*
X805Y1204D03*
G54D17*
X1339Y1915D03*
X1406Y1915D03*
X1817Y1952D03*
X1884Y1952D03*
X2144Y1955D03*
X2211Y1955D03*
G54D18*
X237Y1278D03*
X237Y1345D03*
X185Y647D03*
X185Y714D03*
X1164Y828D03*
X1164Y895D03*
X1755Y814D03*
X1755Y881D03*
G54D19*
X186Y867D03*
X236Y867D03*
X286Y867D03*
X336Y867D03*
X336Y1109D03*
X286Y1109D03*
X236Y1109D03*
X186Y1109D03*
G54D20*
X236Y1635D03*
X449Y1635D03*
X210Y408D03*
X423Y408D03*
G54D17*
X1140Y1632D03*
X1207Y1632D03*
G54D21*
X755Y2325D02*
X758Y2238D01*
D02*
X858Y2238D02*
X855Y2325D01*
D02*
X958Y2238D02*
X955Y2325D01*
D02*
X1058Y2238D02*
X1055Y2325D01*
D02*
X1158Y2238D02*
X1155Y2325D01*
D02*
X1258Y2238D02*
X1255Y2325D01*
D02*
X1358Y2238D02*
X1355Y2325D01*
D02*
X1458Y2238D02*
X1455Y2325D01*
D02*
X1558Y2238D02*
X1555Y2325D01*
D02*
X1658Y2238D02*
X1655Y2325D01*
D02*
X1818Y2238D02*
X1814Y2335D01*
D02*
X1918Y2238D02*
X1914Y2335D01*
D02*
X2018Y2238D02*
X2014Y2335D01*
D02*
X2118Y2238D02*
X2114Y2335D01*
D02*
X2218Y2238D02*
X2214Y2335D01*
D02*
X2318Y2238D02*
X2314Y2335D01*
D02*
X2418Y2238D02*
X2414Y2335D01*
D02*
X2518Y2238D02*
X2514Y2335D01*
D02*
X1118Y276D02*
X1111Y163D01*
D02*
X1218Y276D02*
X1211Y163D01*
D02*
X1318Y276D02*
X1311Y163D01*
D02*
X1418Y276D02*
X1411Y163D01*
D02*
X1518Y276D02*
X1511Y163D01*
D02*
X1618Y276D02*
X1611Y163D01*
D02*
X1718Y276D02*
X1711Y163D01*
D02*
X1818Y276D02*
X1811Y163D01*
D02*
X2019Y276D02*
X2016Y157D01*
D02*
X2119Y276D02*
X2116Y157D01*
D02*
X2219Y276D02*
X2216Y157D01*
D02*
X2319Y276D02*
X2316Y157D01*
D02*
X2419Y276D02*
X2416Y157D01*
D02*
X2519Y276D02*
X2516Y157D01*
D02*
X1450Y1463D02*
X1951Y1459D01*
D02*
X1951Y1459D02*
X2213Y1459D01*
D02*
X1451Y1235D02*
X1450Y1463D01*
D02*
X903Y1459D02*
X905Y1237D01*
D02*
X1450Y1463D02*
X903Y1459D01*
D02*
X1164Y1111D02*
X1033Y1188D01*
D02*
X1164Y913D02*
X1164Y1111D01*
D02*
X1755Y1112D02*
X1581Y1190D01*
D02*
X1755Y899D02*
X1755Y1112D01*
D02*
X186Y867D02*
X185Y732D01*
D02*
X181Y574D02*
X184Y629D01*
D02*
X105Y540D02*
X181Y574D01*
D02*
X101Y405D02*
X105Y540D01*
D02*
X147Y407D02*
X101Y405D01*
D02*
X236Y775D02*
X236Y833D01*
D02*
X186Y778D02*
X236Y775D01*
D02*
X238Y1438D02*
X237Y1363D01*
D02*
X95Y1640D02*
X90Y1438D01*
D02*
X90Y1438D02*
X238Y1438D01*
D02*
X173Y1638D02*
X95Y1640D01*
D02*
X236Y1144D02*
X237Y1260D01*
D02*
X238Y1191D02*
X288Y1191D01*
D02*
X288Y1191D02*
X287Y1144D01*
D02*
X237Y1260D02*
X238Y1191D01*
D02*
X1158Y694D02*
X990Y704D01*
D02*
X990Y704D02*
X998Y984D01*
D02*
X1163Y810D02*
X1158Y694D01*
D02*
X1758Y691D02*
X1755Y796D01*
D02*
X1475Y701D02*
X1758Y691D01*
D02*
X1158Y694D02*
X1475Y701D01*
D02*
X1475Y701D02*
X1547Y990D01*
D02*
X1627Y699D02*
X1620Y338D01*
D02*
X1475Y701D02*
X1627Y699D01*
D02*
X286Y833D02*
X287Y782D01*
D02*
X1755Y1112D02*
X1941Y1112D01*
D02*
X338Y1203D02*
X336Y1144D01*
D02*
X1164Y1111D02*
X1164Y1279D01*
D02*
X1512Y533D02*
X1518Y338D01*
D02*
X655Y539D02*
X1512Y533D01*
D02*
X650Y1024D02*
X655Y539D01*
D02*
X184Y1022D02*
X650Y1024D01*
D02*
X185Y1075D02*
X184Y1022D01*
D02*
X362Y593D02*
X339Y833D01*
D02*
X540Y593D02*
X362Y593D01*
D02*
X561Y409D02*
X486Y409D01*
D02*
X559Y574D02*
X561Y409D01*
D02*
X990Y596D02*
X764Y596D01*
D02*
X990Y704D02*
X990Y596D01*
D02*
X1047Y1630D02*
X1059Y2176D01*
D02*
X512Y1635D02*
X1047Y1630D01*
D02*
X2218Y2176D02*
X2212Y1971D01*
D02*
X1970Y1839D02*
X2126Y1943D01*
D02*
X2015Y1953D02*
X1902Y1952D01*
D02*
X2019Y2176D02*
X2015Y1953D01*
D02*
X1553Y1912D02*
X1424Y1914D01*
D02*
X1559Y2176D02*
X1553Y1912D01*
D02*
X807Y1523D02*
X1818Y1519D01*
D02*
X1818Y1519D02*
X1817Y1936D01*
D02*
X805Y1237D02*
X807Y1523D01*
D02*
X1208Y1918D02*
X1207Y1649D01*
D02*
X1321Y1915D02*
X1208Y1918D01*
D02*
X1047Y1630D02*
X1122Y1632D01*
D02*
X899Y984D02*
X903Y675D01*
D02*
X2221Y590D02*
X1966Y598D01*
D02*
X2220Y338D02*
X2221Y590D01*
D02*
X204Y46D02*
X2301Y51D01*
D02*
X2301Y51D02*
X2310Y97D01*
D02*
X210Y382D02*
X204Y46D01*
D02*
X90Y1438D02*
X85Y1101D01*
D02*
X808Y700D02*
X800Y984D01*
D02*
X2530Y686D02*
X2520Y1388D01*
D02*
X2123Y691D02*
X2434Y686D01*
D02*
X2434Y686D02*
X2530Y686D01*
D02*
X1758Y691D02*
X2123Y691D01*
D02*
X2434Y686D02*
X2439Y940D01*
G04 End of Copper1*
M02*