G04 MADE WITH FRITZING*
G04 WWW.FRITZING.ORG*
G04 DOUBLE SIDED*
G04 HOLES PLATED*
G04 CONTOUR ON CENTER OF CONTOUR VECTOR*
%ASAXBY*%
%FSLAX23Y23*%
%MOIN*%
%OFA0B0*%
%SFA1.0B1.0*%
%ADD10C,0.075278*%
%ADD11C,0.088000*%
%ADD12C,0.180000*%
%ADD13C,0.092000*%
%ADD14C,0.085000*%
%ADD15C,0.049370*%
%ADD16R,0.092000X0.092000*%
%ADD17R,0.057244X0.053307*%
%ADD18R,0.053307X0.057244*%
%ADD19R,0.036000X0.090000*%
%ADD20R,0.147795X0.072992*%
%LNMASK1*%
G90*
G70*
G54D10*
X2120Y307D03*
X2219Y307D03*
X2320Y307D03*
X2420Y307D03*
X2520Y307D03*
X1659Y2207D03*
X1560Y2207D03*
X1460Y2207D03*
X1360Y2207D03*
X1260Y2207D03*
X1160Y2207D03*
X1060Y2207D03*
X959Y2207D03*
X859Y2207D03*
X759Y2207D03*
X2520Y2207D03*
X2420Y2207D03*
X2320Y2207D03*
X2219Y2207D03*
X2120Y2207D03*
X2020Y2207D03*
X1920Y2207D03*
X1820Y2207D03*
X1220Y307D03*
X1120Y307D03*
X1320Y307D03*
X1420Y307D03*
X1520Y307D03*
X1620Y307D03*
X1719Y307D03*
X1820Y307D03*
X2020Y307D03*
G54D11*
X2516Y127D03*
X2416Y127D03*
X2316Y127D03*
X2216Y127D03*
X2116Y127D03*
X2016Y127D03*
X1809Y133D03*
X1709Y133D03*
X1609Y133D03*
X1509Y133D03*
X1409Y133D03*
X1309Y133D03*
X1209Y133D03*
X1109Y133D03*
X2513Y2365D03*
X2413Y2365D03*
X2313Y2365D03*
X2213Y2365D03*
X2113Y2365D03*
X2013Y2365D03*
X1913Y2365D03*
X1813Y2365D03*
X754Y2355D03*
X854Y2355D03*
X954Y2355D03*
X1054Y2355D03*
X1154Y2355D03*
X1254Y2355D03*
X1354Y2355D03*
X1454Y2355D03*
X1554Y2355D03*
X1654Y2355D03*
G54D12*
X2283Y1458D03*
X2519Y1458D03*
X2401Y1643D03*
X2283Y1458D03*
X2519Y1458D03*
X2401Y1643D03*
G54D13*
X1352Y1203D03*
X1452Y1203D03*
X1552Y1203D03*
X805Y1204D03*
X905Y1204D03*
X1005Y1204D03*
G54D14*
X999Y1012D03*
X899Y1012D03*
X799Y1012D03*
X1554Y1017D03*
X1454Y1017D03*
X1354Y1017D03*
G54D15*
X1960Y1112D03*
X288Y763D03*
X338Y1222D03*
X1164Y1298D03*
X559Y593D03*
X745Y596D03*
X1955Y1828D03*
X903Y656D03*
X1947Y599D03*
X84Y1082D03*
X808Y681D03*
G54D14*
X2439Y969D03*
X2339Y969D03*
X2239Y969D03*
G54D16*
X1352Y1203D03*
X805Y1204D03*
G54D17*
X1339Y1915D03*
X1406Y1915D03*
X1817Y1952D03*
X1884Y1952D03*
X2144Y1955D03*
X2211Y1955D03*
G54D18*
X237Y1278D03*
X237Y1345D03*
X185Y647D03*
X185Y714D03*
X1164Y828D03*
X1164Y895D03*
X1755Y814D03*
X1755Y881D03*
G54D19*
X186Y867D03*
X236Y867D03*
X286Y867D03*
X336Y867D03*
X336Y1109D03*
X286Y1109D03*
X236Y1109D03*
X186Y1109D03*
G54D20*
X236Y1635D03*
X449Y1635D03*
X210Y408D03*
X423Y408D03*
G54D17*
X1140Y1632D03*
X1207Y1632D03*
G04 End of Mask1*
M02*